<?xml version="1.0" encoding="UTF-8"?>
<svg width="88px" height="88px" viewBox="0 0 88 88" version="1.1" xmlns="http://www.w3.org/2000/svg" xmlns:xlink="http://www.w3.org/1999/xlink">
    <title>􀕾</title>
    <g id="Page-1" stroke="none" stroke-width="1" fill="none" fill-rule="evenodd">
        <g id="􀕾" fill="#000000" fill-rule="nonzero">
            <path d="M44,88 C68.3169082,88 88,68.2743961 88,44 C88,19.6830918 68.3169082,0 44,0 C19.7256039,0 0,19.6830918 0,44 C0,68.2743961 19.7256039,88 44,88 Z M44,79.1149758 C24.5719807,79.1149758 8.88502415,63.4280193 8.88502415,44 C8.88502415,24.5719807 24.5719807,8.88502415 44,8.88502415 C63.4280193,8.88502415 79.1149758,24.5719807 79.1149758,44 C79.1149758,63.4280193 63.4280193,79.1149758 44,79.1149758 Z M43.9574879,27.1652174 C46.9758454,27.1652174 49.3990338,24.6995169 49.3990338,21.7236715 C49.3990338,18.7478261 46.9758454,16.3246377 43.9574879,16.3246377 C40.9391304,16.3246377 38.5584541,18.7478261 38.5584541,21.7236715 C38.5584541,24.6995169 40.9391304,27.1652174 43.9574879,27.1652174 Z M43.9574879,29.8859903 C38.0483092,29.8859903 29.6309179,28.9082126 25.5922705,28.2705314 C25.2096618,28.2280193 24.8270531,28.1429952 24.4869565,28.1429952 C23.3816425,28.1429952 22.3188406,28.9932367 22.3188406,30.4811594 C22.3188406,31.6289855 22.9990338,32.6067633 24.1043478,32.8618357 C25.4222222,33.2444444 34.9449275,34.3497585 36.1352657,34.5623188 C37.2830918,34.8173913 38.0057971,35.8376812 38.0483092,37.2405797 C38.0908213,39.4086957 38.0483092,46.3381643 37.5381643,49.484058 C37.0280193,52.6299517 33.3719807,67.7217391 33.2019324,68.3594203 C32.7768116,69.9748792 33.7545894,71.4202899 35.3700483,71.4202899 C36.5603865,71.4202899 37.3681159,70.7826087 37.7932367,69.2096618 C38.515942,66.1487923 41.1091787,55.7333333 41.9594203,53.2251208 C42.5120773,51.3971014 42.9371981,50.7169082 43.9574879,50.7169082 C44.9777778,50.7169082 45.4028986,51.3971014 45.9980676,53.2251208 C46.763285,55.7333333 49.4415459,66.1487923 50.1642512,69.2096618 C50.5468599,70.7826087 51.3545894,71.4202899 52.5449275,71.4202899 C54.1603865,71.4202899 55.1381643,69.9748792 54.7130435,68.3594203 C54.5855072,67.7217391 50.8869565,52.6299517 50.4193237,49.484058 C49.9091787,46.3381643 49.9091787,39.4086957 49.9091787,37.2405797 C49.9091787,35.8376812 50.6318841,34.8599034 51.8222222,34.5623188 C52.9700483,34.3497585 62.4927536,33.2869565 63.810628,32.8618357 C64.915942,32.5642512 65.5961353,31.6289855 65.5961353,30.4811594 C65.5961353,28.9932367 64.4483092,28.1429952 63.4705314,28.1429952 C63.0879227,28.1429952 62.705314,28.2280193 62.3227053,28.2705314 C58.284058,28.9082126 49.9091787,29.8859903 43.9574879,29.8859903 Z" id="Shape"></path>
        </g>
    </g>
</svg>